######## ######## ######## ##          ######## ########  ######## ######## 
##       ##       ##       ##          ##       ##     ## ##       ##       
##       ##       ##       ##          ##       ##     ## ##       ##       
######   ######   ######   ##          ######   ########  ######   ######   
##       ##       ##       ##          ##       ##   ##   ##       ##       
##       ##       ##       ##          ##       ##    ##  ##       ##       
##       ######## ######## ########    ##       ##     ## ######## ######## 


Genre:Adventure | Comedy | Family
Language:English
IMDb: 
http://www.imdb.com/title/tt1618435/
Source:DVD
Subtitles:Romana

Format : MPEG-4
Format profile : Base Media
Codec ID : isom
File size : 901 MiB
Duration : 1h 22mn
Overall bit rate : 1 532 Kbps

Video
Format profile : High@L4.1
Format settings, CABAC : Yes
Format settings, ReFrames : 3 frames
Codec ID : avc1
Codec ID/Info : Advanced Video Coding
Duration : 1h 22mn
Bit rate mode : Variable
Bit rate : 1 072 Kbps
Maximum bit rate : 6 720 Kbps
Width : 720 pixels
Height : 400 pixels
Display aspect ratio : 16:9
Frame rate mode : Constant
Frame rate : 23.976 fps
Color space : YUV
Chroma subsampling : 4:2:0
Bit depth : 8 bits
Scan type : Progressive
Bits/(Pixel*Frame) : 0.155
Stream size : 637 MiB (71%)
Writing library : x264

Audio 
Format/Info : Advanced Audio Codec
Format version : Version 4
Format profile : LC
Format settings, SBR : No
Codec ID : 40
Duration : 1h 22mn
Bit rate mode : Variable
Bit rate : 444 Kbps
Maximum bit rate : 548 Kbps
Channel(s) : 6 channels
Channel positions : Front: L C R, Side: L R, LFE
Sampling rate : 48.0 KHz
Stream size : 261 MiB (29%)



Greets:

INK,CRYS,IMAGINE,LKRG,FXG,3Li,FLAWL3SS,TA,iLLUSiON,ViSiON,DTRG SAFCuk009,LU,TheFalcon007,MYSTiC,PrisM,Noir,WBZ,LAP,Rx,Kingdom,SAFCuk009+Fabreezy,HDLiTE,TWiZTED,ExtraTorrentRG.ELEKTRI4KA,MAGNAT,CM8
And to all the other p2p grps past and present







================================== 
http://thepiratebay.org/user/hiest
==================================







Screenshots:
 
http://www.pix2links.com/images/96154891901050234582.png
 
http://www.pix2links.com/images/98687005557478381300.png
 
http://www.pix2links.com/images/28928859993643016861.png
 
http://www.pix2links.com/images/10051446762422238111.png
 
http://www.pix2links.com/images/17992986014119408275.png


######## ######## ######## ##          ######## ########  ######## ######## 
##       ##       ##       ##          ##       ##     ## ##       ##       
##       ##       ##       ##          ##       ##     ## ##       ##       
######   ######   ######   ##          ######   ########  ######   ######   
##       ##       ##       ##          ##       ##   ##   ##       ##       
##       ##       ##       ##          ##       ##    ##  ##       ##       
##       ######## ######## ########    ##       ##     ## ######## ######## 
